<svg width="2478" height="2126" viewBox="0 0 2478 2126" fill="none" xmlns="http://www.w3.org/2000/svg">
<path d="M636.835 1567.85C497.64 1567.85 364.146 1514.95 265.721 1420.81C167.295 1326.66 112 1198.97 112 1065.83C112 932.687 167.295 804.997 265.721 710.851C364.146 616.705 497.64 563.814 636.835 563.814C669.709 417.357 765.882 288.652 904.196 206.012C972.682 165.094 1049.45 136.716 1130.12 122.499C1210.8 108.283 1293.79 108.506 1374.36 123.156C1454.94 137.806 1531.52 166.596 1599.73 207.883C1667.95 249.169 1726.46 302.143 1771.92 363.781C1817.39 425.418 1848.92 494.511 1864.71 567.116C1880.51 639.72 1880.26 714.414 1863.98 786.932H1975.54C2079.1 786.932 2178.41 828.069 2251.64 901.294C2324.86 974.519 2366 1073.83 2366 1177.39C2366 1280.94 2324.86 1380.26 2251.64 1453.48C2178.41 1526.71 2079.1 1567.85 1975.54 1567.85H1863.98" stroke="white" stroke-opacity="0.03" stroke-width="223.118" stroke-linecap="round" stroke-linejoin="round"/>
<path d="M1306.19 1121.61L1083.07 1567.84H1417.75L1194.63 2014.08" stroke="white" stroke-opacity="0.03" stroke-width="223.118" stroke-linecap="round" stroke-linejoin="round"/>
<g filter="url(#filter0_i_2086_112)">
<rect x="210" y="187" width="2056" height="1750" rx="53" fill="#181818" fill-opacity="0.54"/>
</g>
<path d="M990.125 428.15C988.217 424.136 985.453 421.044 981.835 418.873C978.216 416.636 974.006 415.518 969.203 415.518C964.4 415.518 960.058 416.636 956.176 418.873C952.36 421.044 949.334 424.202 947.097 428.347C944.925 432.426 943.84 437.163 943.84 442.558C943.84 447.953 944.925 452.69 947.097 456.769C949.334 460.848 952.36 464.007 956.176 466.243C960.058 468.415 964.4 469.5 969.203 469.5C975.914 469.5 981.44 467.494 985.782 463.48C990.125 459.467 992.658 454.039 993.381 447.197H965.946V439.894H1002.95V446.802C1002.43 452.46 1000.65 457.658 997.625 462.395C994.599 467.066 990.618 470.783 985.684 473.546C980.749 476.244 975.256 477.593 969.203 477.593C962.821 477.593 956.998 476.112 951.735 473.152C946.472 470.125 942.294 465.947 939.202 460.618C936.175 455.289 934.662 449.269 934.662 442.558C934.662 435.847 936.175 429.827 939.202 424.498C942.294 419.103 946.472 414.926 951.735 411.965C956.998 408.938 962.821 407.425 969.203 407.425C976.506 407.425 982.953 409.235 988.546 412.853C994.204 416.472 998.316 421.571 1000.88 428.15H990.125ZM1064.17 447.887C1064.17 449.598 1064.07 451.407 1063.88 453.315H1020.65C1020.98 458.644 1022.79 462.822 1026.08 465.849C1029.43 468.809 1033.48 470.29 1038.22 470.29C1042.1 470.29 1045.32 469.401 1047.89 467.625C1050.52 465.783 1052.36 463.349 1053.42 460.322H1063.09C1061.64 465.52 1058.74 469.763 1054.4 473.053C1050.06 476.277 1044.67 477.889 1038.22 477.889C1033.09 477.889 1028.48 476.737 1024.4 474.435C1020.39 472.132 1017.23 468.875 1014.93 464.664C1012.62 460.388 1011.47 455.454 1011.47 449.861C1011.47 444.269 1012.59 439.367 1014.83 435.157C1017.07 430.946 1020.19 427.722 1024.2 425.485C1028.28 423.182 1032.95 422.031 1038.22 422.031C1043.35 422.031 1047.89 423.15 1051.84 425.386C1055.78 427.623 1058.81 430.716 1060.92 434.663C1063.09 438.545 1064.17 442.953 1064.17 447.887ZM1054.9 446.012C1054.9 442.591 1054.14 439.663 1052.63 437.229C1051.11 434.729 1049.04 432.854 1046.41 431.604C1043.84 430.288 1040.98 429.63 1037.82 429.63C1033.28 429.63 1029.4 431.078 1026.18 433.972C1023.02 436.867 1021.21 440.881 1020.75 446.012H1054.9ZM1099.61 477.889C1094.55 477.889 1089.94 476.737 1085.8 474.435C1081.72 472.132 1078.49 468.875 1076.13 464.664C1073.82 460.388 1072.67 455.454 1072.67 449.861C1072.67 444.335 1073.86 439.466 1076.22 435.255C1078.66 430.979 1081.95 427.722 1086.09 425.485C1090.24 423.182 1094.88 422.031 1100.01 422.031C1105.14 422.031 1109.78 423.182 1113.92 425.485C1118.07 427.722 1121.32 430.946 1123.69 435.157C1126.13 439.367 1127.34 444.269 1127.34 449.861C1127.34 455.454 1126.09 460.388 1123.59 464.664C1121.16 468.875 1117.84 472.132 1113.63 474.435C1109.42 476.737 1104.75 477.889 1099.61 477.889ZM1099.61 469.994C1102.84 469.994 1105.86 469.237 1108.69 467.724C1111.52 466.211 1113.79 463.941 1115.5 460.914C1117.28 457.888 1118.17 454.203 1118.17 449.861C1118.17 445.519 1117.31 441.835 1115.6 438.808C1113.89 435.782 1111.65 433.545 1108.89 432.097C1106.13 430.584 1103.13 429.827 1099.91 429.827C1096.62 429.827 1093.59 430.584 1090.83 432.097C1088.13 433.545 1085.96 435.782 1084.32 438.808C1082.67 441.835 1081.85 445.519 1081.85 449.861C1081.85 454.269 1082.64 457.987 1084.22 461.013C1085.86 464.039 1088.03 466.309 1090.73 467.822C1093.43 469.27 1096.39 469.994 1099.61 469.994Z" fill="white" fill-opacity="0.5"/>
<path d="M1176.16 477L1159.09 448.183H1146.36V477H1139.45V408.017H1160.17C1167.87 408.017 1173.69 409.86 1177.64 413.544C1181.65 417.228 1183.66 422.064 1183.66 428.051C1183.66 433.051 1182.21 437.328 1179.32 440.881C1176.49 444.368 1172.28 446.637 1166.69 447.69L1184.45 477H1176.16ZM1146.36 442.558H1160.27C1165.67 442.558 1169.71 441.242 1172.41 438.611C1175.17 435.979 1176.56 432.459 1176.56 428.051C1176.56 423.511 1175.24 420.024 1172.61 417.59C1169.98 415.09 1165.83 413.84 1160.17 413.84H1146.36V442.558ZM1246.12 447.295C1246.12 449.664 1246.06 451.473 1245.92 452.723H1201.22C1201.42 456.802 1202.4 460.289 1204.18 463.184C1205.96 466.079 1208.29 468.283 1211.19 469.796C1214.08 471.244 1217.24 471.967 1220.66 471.967C1225.13 471.967 1228.88 470.882 1231.91 468.711C1235 466.54 1237.04 463.612 1238.03 459.927H1245.33C1244.02 465.191 1241.19 469.5 1236.85 472.856C1232.57 476.145 1227.17 477.79 1220.66 477.79C1215.59 477.79 1211.06 476.672 1207.04 474.435C1203.03 472.132 1199.87 468.908 1197.57 464.763C1195.33 460.552 1194.21 455.651 1194.21 450.059C1194.21 444.466 1195.33 439.565 1197.57 435.354C1199.8 431.143 1202.93 427.919 1206.94 425.683C1210.96 423.446 1215.53 422.327 1220.66 422.327C1225.79 422.327 1230.27 423.446 1234.08 425.683C1237.96 427.919 1240.92 430.946 1242.96 434.762C1245.07 438.512 1246.12 442.69 1246.12 447.295ZM1239.12 447.098C1239.18 443.085 1238.36 439.663 1236.65 436.834C1235 434.005 1232.73 431.867 1229.84 430.42C1226.94 428.972 1223.79 428.248 1220.36 428.248C1215.23 428.248 1210.86 429.893 1207.24 433.183C1203.62 436.472 1201.61 441.111 1201.22 447.098H1239.12ZM1277.31 477.79C1271.13 477.79 1266.06 476.375 1262.12 473.546C1258.23 470.652 1256.06 466.737 1255.6 461.802H1262.71C1263.04 464.829 1264.45 467.296 1266.95 469.204C1269.52 471.046 1272.94 471.967 1277.22 471.967C1280.97 471.967 1283.89 471.079 1286 469.303C1288.17 467.526 1289.26 465.322 1289.26 462.691C1289.26 460.848 1288.66 459.335 1287.48 458.151C1286.3 456.967 1284.78 456.046 1282.94 455.388C1281.16 454.664 1278.73 453.907 1275.64 453.118C1271.62 452.065 1268.37 451.013 1265.87 449.96C1263.37 448.907 1261.23 447.361 1259.45 445.322C1257.74 443.216 1256.89 440.42 1256.89 436.933C1256.89 434.301 1257.68 431.867 1259.25 429.63C1260.83 427.393 1263.07 425.617 1265.97 424.301C1268.86 422.985 1272.15 422.327 1275.83 422.327C1281.62 422.327 1286.3 423.807 1289.85 426.768C1293.4 429.663 1295.31 433.676 1295.57 438.808H1288.66C1288.47 435.65 1287.22 433.117 1284.91 431.209C1282.68 429.235 1279.58 428.248 1275.64 428.248C1272.15 428.248 1269.32 429.071 1267.15 430.716C1264.98 432.36 1263.89 434.4 1263.89 436.834C1263.89 438.94 1264.52 440.683 1265.77 442.065C1267.08 443.381 1268.7 444.433 1270.6 445.223C1272.51 445.947 1275.08 446.769 1278.3 447.69C1282.18 448.743 1285.28 449.763 1287.58 450.749C1289.88 451.736 1291.85 453.184 1293.5 455.092C1295.14 457 1296 459.533 1296.07 462.691C1296.07 465.586 1295.28 468.184 1293.7 470.487C1292.12 472.724 1289.91 474.5 1287.08 475.816C1284.26 477.132 1281 477.79 1277.31 477.79ZM1331.67 422.327C1336.73 422.327 1341.14 423.511 1344.89 425.88C1348.64 428.248 1351.34 431.242 1352.99 434.861V423.117H1359.89V478.382C1359.89 483.317 1358.81 487.692 1356.64 491.508C1354.53 495.324 1351.57 498.251 1347.76 500.291C1343.94 502.396 1339.6 503.449 1334.73 503.449C1327.82 503.449 1322.06 501.804 1317.46 498.515C1312.92 495.225 1310.09 490.751 1308.97 485.093H1315.78C1316.96 488.843 1319.2 491.837 1322.49 494.074C1325.85 496.311 1329.93 497.429 1334.73 497.429C1338.22 497.429 1341.34 496.672 1344.1 495.159C1346.87 493.712 1349.04 491.541 1350.62 488.646C1352.2 485.751 1352.99 482.33 1352.99 478.382V465.059C1351.27 468.744 1348.54 471.803 1344.79 474.237C1341.11 476.606 1336.73 477.79 1331.67 477.79C1326.73 477.79 1322.29 476.639 1318.35 474.336C1314.46 472.033 1311.4 468.776 1309.17 464.566C1307 460.355 1305.91 455.486 1305.91 449.96C1305.91 444.433 1307 439.598 1309.17 435.453C1311.4 431.242 1314.46 428.018 1318.35 425.781C1322.29 423.479 1326.73 422.327 1331.67 422.327ZM1352.99 450.059C1352.99 445.716 1352.1 441.9 1350.32 438.611C1348.54 435.321 1346.11 432.788 1343.02 431.012C1339.99 429.235 1336.64 428.347 1332.95 428.347C1329.14 428.347 1325.71 429.202 1322.69 430.913C1319.66 432.624 1317.26 435.124 1315.48 438.413C1313.77 441.637 1312.92 445.486 1312.92 449.96C1312.92 454.368 1313.77 458.25 1315.48 461.605C1317.26 464.895 1319.66 467.428 1322.69 469.204C1325.71 470.915 1329.14 471.77 1332.95 471.77C1336.64 471.77 1339.99 470.882 1343.02 469.105C1346.11 467.329 1348.54 464.796 1350.32 461.506C1352.1 458.217 1352.99 454.401 1352.99 450.059ZM1465.89 428.939V462.395C1465.89 465.684 1466.51 467.954 1467.76 469.204C1469.01 470.454 1471.22 471.079 1474.38 471.079H1480.69V477H1473.29C1468.42 477 1464.8 475.882 1462.44 473.645C1460.07 471.342 1458.88 467.592 1458.88 462.395V428.939H1451.38V423.117H1458.88V409.596H1465.89V423.117H1480.69V428.939H1465.89ZM1540.84 447.295C1540.84 449.664 1540.77 451.473 1540.64 452.723H1495.93C1496.13 456.802 1497.12 460.289 1498.9 463.184C1500.67 466.079 1503.01 468.283 1505.9 469.796C1508.8 471.244 1511.96 471.967 1515.38 471.967C1519.85 471.967 1523.6 470.882 1526.63 468.711C1529.72 466.54 1531.76 463.612 1532.75 459.927H1540.05C1538.73 465.191 1535.9 469.5 1531.56 472.856C1527.28 476.145 1521.89 477.79 1515.38 477.79C1510.31 477.79 1505.77 476.672 1501.76 474.435C1497.74 472.132 1494.59 468.908 1492.28 464.763C1490.05 460.552 1488.93 455.651 1488.93 450.059C1488.93 444.466 1490.05 439.565 1492.28 435.354C1494.52 431.143 1497.65 427.919 1501.66 425.683C1505.67 423.446 1510.24 422.327 1515.38 422.327C1520.51 422.327 1524.98 423.446 1528.8 425.683C1532.68 427.919 1535.64 430.946 1537.68 434.762C1539.79 438.512 1540.84 442.69 1540.84 447.295ZM1533.83 447.098C1533.9 443.085 1533.07 439.663 1531.36 436.834C1529.72 434.005 1527.45 431.867 1524.55 430.42C1521.66 428.972 1518.5 428.248 1515.08 428.248C1509.95 428.248 1505.57 429.893 1501.95 433.183C1498.34 436.472 1496.33 441.111 1495.93 447.098H1533.83Z" fill="white"/>
<path d="M1390.17 470.314C1385.6 470.314 1381.21 468.576 1377.97 465.482C1374.74 462.389 1372.92 458.193 1372.92 453.818C1372.92 449.444 1374.74 445.248 1377.97 442.155C1381.21 439.061 1385.6 437.323 1390.17 437.323C1391.25 432.511 1394.41 428.282 1398.95 425.567C1401.2 424.222 1403.73 423.29 1406.38 422.823C1409.03 422.355 1411.75 422.363 1414.4 422.844C1417.05 423.325 1419.57 424.271 1421.81 425.628C1424.05 426.985 1425.97 428.725 1427.47 430.751C1428.96 432.776 1430 435.046 1430.51 437.432C1431.03 439.817 1431.03 442.272 1430.49 444.654H1434.16C1437.56 444.654 1440.82 446.006 1443.23 448.412C1445.63 450.818 1446.99 454.081 1446.99 457.484C1446.99 460.887 1445.63 464.15 1443.23 466.556C1440.82 468.962 1437.56 470.314 1434.16 470.314H1430.49" stroke="url(#paint0_linear_2086_112)" stroke-width="7.3312" stroke-linecap="round" stroke-linejoin="round"/>
<path d="M1412.16 455.651L1404.83 470.314H1415.83L1408.5 484.976" stroke="#A50000" stroke-width="7.3312" stroke-linecap="round" stroke-linejoin="round"/>
<defs>
<filter id="filter0_i_2086_112" x="210" y="187" width="2056" height="1754" filterUnits="userSpaceOnUse" color-interpolation-filters="sRGB">
<feFlood flood-opacity="0" result="BackgroundImageFix"/>
<feBlend mode="normal" in="SourceGraphic" in2="BackgroundImageFix" result="shape"/>
<feColorMatrix in="SourceAlpha" type="matrix" values="0 0 0 0 0 0 0 0 0 0 0 0 0 0 0 0 0 0 127 0" result="hardAlpha"/>
<feOffset dy="4"/>
<feGaussianBlur stdDeviation="2"/>
<feComposite in2="hardAlpha" operator="arithmetic" k2="-1" k3="1"/>
<feColorMatrix type="matrix" values="0 0 0 0 0 0 0 0 0 0 0 0 0 0 0 0 0 0 0.25 0"/>
<feBlend mode="normal" in2="shape" result="effect1_innerShadow_2086_112"/>
</filter>
<linearGradient id="paint0_linear_2086_112" x1="1409.95" y1="422.478" x2="1409.95" y2="470.314" gradientUnits="userSpaceOnUse">
<stop stop-color="#D80000"/>
<stop offset="0.5" stop-color="#A50000"/>
<stop offset="1" stop-color="#720000"/>
</linearGradient>
</defs>
</svg>
